<svg xmlns="http://www.w3.org/2000/svg" width="268.931" height="216.827" viewBox="0 0 268.931 216.827"><path d="M551.222,669.656a12.639,12.639,0,0,0-7.542-5.222,36.732,36.732,0,0,0-8.4-.494l-35.471.273a5.809,5.809,0,1,0,0,11.619l31.172-.24c2.45-.019,4.9-.063,7.35-.055.55,0,1.1.031,1.648.037.133,0,.229,0,.3,0l.054.016c.287.079.581.133.869.208-.1,0,.187.183.332.244.02.039.062.109.133.216.1.185.391.747.4.73a26.054,26.054,0,0,1,1.085,3.41,19.1,19.1,0,0,1,.921,5.494c.123,3.033,2.584,5.954,5.809,5.809,3.042-.136,5.941-2.557,5.809-5.809C555.466,680.408,554.5,674.252,551.222,669.656Z" transform="translate(-398.017 -477.834)" fill="#e6e6e6"/><path d="M444.588,537.232c-.666-4.037-1.32-8.077-2-12.112-.689-4.094-2.1-7.842-5.282-10.529-.851-.718-1.734-1.388-2.62-2.056-.312-.235-.623-.47-.931-.71l-.046-.036-.129-.11c-1.328-1.124-2.611-2.3-3.833-3.545q-1.628-1.662-3.113-3.466-.371-.451-.733-.909l-.412-.53c-.137-.189-.387-.529-.429-.588q-.423-.6-.83-1.206a56.69,56.69,0,0,1-4.788-8.756q-.2-.454-.388-.914l-.136-.374c-.269-.74-.538-1.479-.784-2.228q-.784-2.386-1.348-4.842-.279-1.213-.5-2.438-.115-.63-.215-1.263c-.011-.07-.076-.525-.115-.782s-.081-.716-.088-.786q-.064-.638-.113-1.277-.111-1.438-.151-2.881-.067-2.564.092-5.127c.06-.96.146-1.918.252-2.874l.016-.148c.006-.043.014-.091.023-.152.078-.528.16-1.056.252-1.582a57.84,57.84,0,0,1,1.358-5.923q.395-1.383.858-2.743.206-.6.426-1.2c-.01.026.429-1.095.435-1.133,1.741-4.113,4.589-7.863,4.592-12.536,0-3.164-2.674-6.194-5.809-6.048a6.036,6.036,0,0,0-5.809,6.048c0,.071,0,.132,0,.19l-.076.253c-.34.738-.755,1.439-1.128,2.158-1.021,1.969-1.892,4-2.719,6.067a58.033,58.033,0,0,0-3.1,10.395,66.118,66.118,0,0,0-.351,23.615,60.94,60.94,0,0,0,20.007,35.706c.9.767,1.814,1.507,2.741,2.233.383.3.77.6,1.159.888.184.138.945.739.61.448a3.7,3.7,0,0,1,1.208,1.376l.113.44c.13.51.254,1.019.357,1.537.9,4.521,1.524,9.118,2.274,13.668.516,3.126,4.365,5.161,7.146,4.224C443.768,543.581,445.141,540.582,444.588,537.232Z" transform="translate(-340.714 -332.3)" fill="#e6e6e6"/><path d="M485.327,492.166A9.213,9.213,0,0,1,476.09,483v-6.627c-6.938.777-30.7.6-37.507-.5v6.859a9.237,9.237,0,1,1-18.474,0V469.266a59.256,59.256,0,0,1,24.429-110.776c1.607-.126,3.225-.19,4.807-.19,5.574,0,30.724.861,37.034,2.677L500.768,346.7a1.51,1.51,0,0,1,1.652-.329,1.489,1.489,0,0,1,.938,1.4v2.27l2.8-2.775a1.507,1.507,0,0,1,1.651-.33,1.489,1.489,0,0,1,.939,1.4V373.7a59.1,59.1,0,0,1-14.186,97.259V483A9.213,9.213,0,0,1,485.327,492.166Zm-8.511-16.618V483a8.511,8.511,0,1,0,17.022,0V470.5l.207-.1A58.986,58.986,0,0,0,518.2,449.273a58.212,58.212,0,0,0-10.057-75.145l-.121-.108V348.329a.764.764,0,0,0-.487-.725.78.78,0,0,0-.865.172l-4.04,4v-4.011a.764.764,0,0,0-.487-.725.782.782,0,0,0-.866.173l-14.7,14.583-.209-.065c-5.866-1.836-31.412-2.707-37.028-2.707-1.563,0-3.161.063-4.75.188a58.848,58.848,0,0,0-32.038,12.616,58.269,58.269,0,0,0,8.091,96.905l.187.1v13.9a8.511,8.511,0,1,0,17.022,0V475l.43.081c6.12,1.151,31.891,1.333,38.119.516Z" transform="translate(-331.535 -275.509)" fill="#3f3d56"/><path d="M440.829,270.352,400.62,282.435a5.041,5.041,0,0,0,2.9,9.655l35.187-10.577.737-.221a24.514,24.514,0,0,1,3.01-10.842,2.238,2.238,0,0,0-.726-.189A2.311,2.311,0,0,0,440.829,270.352Z" transform="translate(-336.26 -227.102)" fill="#08f5a3"/><path d="M404.129,296.242a2.546,2.546,0,0,1-2.41-1.743l-2.514-7.587a2.541,2.541,0,0,1,1.613-3.212l32.726-10.845a2.541,2.541,0,0,1,3.212,1.613l2.514,7.587a2.533,2.533,0,0,1-1.522,3.18l-.092.032-32.725,10.845A2.542,2.542,0,0,1,404.129,296.242Z" transform="translate(-337.563 -228.677)" fill="#2f2e41"/><path d="M537.206,233.42A25.428,25.428,0,0,0,511.8,258.056c-.007.258-.011.519-.011.781a25.416,25.416,0,1,0,25.416-25.416Zm0,50.106a24.716,24.716,0,0,1-24.69-24.69q0-.507.022-1a24.689,24.689,0,1,1,24.668,25.692Z" transform="translate(-409.353 -203.644)" fill="#3f3d56"/><path d="M565.634,265.842a21.422,21.422,0,1,1-42.844,0c0-.679.033-1.347.094-2.008a21.422,21.422,0,0,1,42.75,2.008Z" transform="translate(-416.359 -210.649)" fill="#e6e6e6"/><path d="M575.559,282.6a5.1,5.1,0,0,0-1.986-1.572,19.292,19.292,0,0,0-2.985-.98v-5.831a8.494,8.494,0,0,1,4.245,1.935l1.184-2.523a7.828,7.828,0,0,0-2.309-1.427,11.35,11.35,0,0,0-2.93-.752V268.49h-2.741v2.985a7.505,7.505,0,0,0-3,1.006,5.954,5.954,0,0,0-2.03,1.99,5,5,0,0,0-.723,2.647,4.525,4.525,0,0,0,.832,2.832,5.268,5.268,0,0,0,2.069,1.641,19.133,19.133,0,0,0,3.036,1.006v5.588a9.073,9.073,0,0,1-5.051-2.015L561.99,288.7a8.925,8.925,0,0,0,2.7,1.532,12.405,12.405,0,0,0,3.344.7v2.93h2.741v-2.985a7.094,7.094,0,0,0,4.07-1.866,4.934,4.934,0,0,0,1.518-3.667A4.377,4.377,0,0,0,575.559,282.6Zm-7.334-3.17a5.264,5.264,0,0,1-1.826-.98,1.932,1.932,0,0,1-.646-1.518,2.442,2.442,0,0,1,.661-1.746,3.341,3.341,0,0,1,1.812-.94Zm4.085,7.727a3.107,3.107,0,0,1-1.721.9v-4.807a4.808,4.808,0,0,1,1.721.861,1.691,1.691,0,0,1,.592,1.343A2.47,2.47,0,0,1,572.309,287.153Z" transform="translate(-441.326 -225.98)" fill="#08f5a3"/><path d="M409.345,384.163a2.55,2.55,0,0,1-2.46-1.894l-1.369-5.181a2.543,2.543,0,0,1,1.806-3.1l43.186-11.412a2.547,2.547,0,0,1,3.1,1.81l1.16,4.39-.217.017a58.153,58.153,0,0,0-30.538,11.572l-.063.031L409.99,384.08a2.528,2.528,0,0,1-.645.084Z" transform="translate(-341.612 -285.849)" fill="#2f2e41"/><path d="M349.7,439.454a35.622,35.622,0,0,1-14.2-5.371,34.684,34.684,0,0,1-5.873-4.8,18.018,18.018,0,0,1-4.3-6.2,9.186,9.186,0,0,1,.12-6.815,8.835,8.835,0,0,1,4.781-4.766,9.122,9.122,0,0,1,6.919-.01,6.205,6.205,0,0,1,2.529,2.035,4.152,4.152,0,0,1,.657,1.365,2.786,2.786,0,0,1,.033,1.365,3.274,3.274,0,0,1-1.733,2.078,8.739,8.739,0,0,1-2.96.9c-1.039.142-2.53.27-3.365-.563a1.7,1.7,0,0,1-.4-.585,1.131,1.131,0,0,1-.063-.529c-.012.079.05-.172.047-.161-.013.037-.07.127.011-.011a1.23,1.23,0,0,1,.085-.132c-.028.036-.088.1.02-.007a.713.713,0,0,1,.332-.2c.05-.015.1-.026.152-.04.128-.035-.128,0,0,0,.051,0,.1,0,.152,0,.129-.006-.127-.035,0,0,.048.012.1.024.142.039.1.032-.073-.075,0,.005s-.085-.092.007,0a1.692,1.692,0,0,1,.13.143.857.857,0,0,0,1.2,0,.871.871,0,0,0,0-1.2,2.306,2.306,0,0,0-3.346.1,2.768,2.768,0,0,0,.4,3.877,5.358,5.358,0,0,0,4.415,1,10.826,10.826,0,0,0,3.729-1.054,5.228,5.228,0,0,0,2.55-2.755,4.783,4.783,0,0,0-.384-3.91,8.437,8.437,0,0,0-6.929-4.077,10.824,10.824,0,0,0-7.922,2.6,10.949,10.949,0,0,0-3.59,7.289,12.484,12.484,0,0,0,2.527,8.066,30.727,30.727,0,0,0,6.092,6.3,37.206,37.206,0,0,0,15.545,7.331q1.014.209,2.039.359a.879.879,0,0,0,1.047-.594A.857.857,0,0,0,349.7,439.454Z" transform="translate(-289.116 -315.547)" fill="#3f3d56"/><path d="M572.711,390.745q-11.133-.157-22.2.565c-2.521.165-4.7,1.056-4.7,2.553,0,1.252,2.164,2.719,4.7,2.553q11.058-.722,22.2-.565C578.765,395.937,578.761,390.83,572.711,390.745Z" transform="translate(-431.021 -303.828)" fill="#ccc"/><path d="M555.221,394.926c-.8,0-19.645-.03-19.645-2.633s18.843-2.633,19.645-2.633,19.645.03,19.645,2.633S556.023,394.926,555.221,394.926Zm-18.908-2.633c.516.789,7.442,1.907,18.908,1.907s18.393-1.117,18.908-1.907c-.516-.789-7.442-1.906-18.908-1.906S536.828,391.5,536.313,392.293Z" transform="translate(-424.502 -303.155)" fill="#3f3d56"/><path d="M754.212,517.257c4.171-.116,9.363-.261,13.362-3.182a10.262,10.262,0,0,0,4.038-7.662,6.9,6.9,0,0,0-2.347-5.669c-2.089-1.765-5.139-2.179-8.426-1.213l3.406-24.889-2.5-.343-4,29.26,2.088-.958c2.421-1.11,5.743-1.675,7.808.07a4.435,4.435,0,0,1,1.454,3.653,7.756,7.756,0,0,1-3,5.713c-3.112,2.273-7.25,2.567-11.944,2.7Z" transform="translate(-563.709 -357.062)" fill="#3f3d56"/><rect width="13.591" height="2.524" transform="translate(169.999 119.725)" fill="#3f3d56"/><path d="M427.241,423.817a2.546,2.546,0,0,1-2.507-2.149l-.83-5.294a2.544,2.544,0,0,1,2.118-2.9l44.127-6.914a2.544,2.544,0,0,1,2.9,2.118l.83,5.295a2.544,2.544,0,0,1-2.117,2.9l-44.127,6.914A2.578,2.578,0,0,1,427.241,423.817Z" transform="translate(-353.358 -313.896)" fill="#2f2e41"/><circle cx="18.518" cy="18.518" r="18.518" transform="translate(37.104 10.84)" fill="#08f5a3"/><path d="M407.854,224.329a4.392,4.392,0,0,0,1.586-.972,2.953,2.953,0,0,0,.819-2.354,1.987,1.987,0,0,0-.912-1.512,2.569,2.569,0,0,0-2.45.018l-.1-7.228-.726.01.121,8.5.553-.363a2.2,2.2,0,0,1,2.225-.316,1.276,1.276,0,0,1,.571.977,2.232,2.232,0,0,1-.609,1.755,6,6,0,0,1-3.282,1.282l.129.715A11.97,11.97,0,0,0,407.854,224.329Z" transform="translate(-341.748 -190.18)" fill="#2f2e41"/><rect width="3.911" height="0.726" transform="matrix(0.989, -0.15, 0.15, 0.989, 68.656, 22.179)" fill="#2f2e41"/><rect width="3.911" height="0.726" transform="matrix(0.989, -0.15, 0.15, 0.989, 56.45, 24.027)" fill="#2f2e41"/><path d="M386.918,344.3a3.279,3.279,0,0,1-3.062-2.126l-12.767-34.192a16.9,16.9,0,0,1,9.907-21.714l10.381-3.876a3.252,3.252,0,0,1,2.5.087,3.207,3.207,0,0,1,1.7,1.81l23.65,44.654a3.268,3.268,0,0,1-1.909,4.226L388.06,344.091A3.259,3.259,0,0,1,386.918,344.3Z" transform="translate(-319.06 -234.702)" fill="#2f2e41"/><path d="M420.158,283.177l23.466,31.38-15.878-31.051a2.933,2.933,0,0,0-3.758-1.76Z" transform="translate(-350.991 -234.312)" fill="#e6e6e6"/><path d="M440.722,329.234l-41.9-2.7a5.039,5.039,0,1,1,.648-10.058l41.9,2.7a2.36,2.36,0,0,1,2.2,2.507l-.344,5.348a2.36,2.36,0,0,1-2.507,2.2Z" transform="translate(-334.399 -256.537)" fill="#08f5a3"/><path d="M426.84,327.568q-.083,0-.166-.005h0l-34.4-2.216a2.541,2.541,0,0,1-2.373-2.7l.588-9.135a2.541,2.541,0,0,1,2.7-2.373l34.4,2.216a2.544,2.544,0,0,1,2.373,2.7l-.588,9.135a2.548,2.548,0,0,1-1.651,2.219A2.515,2.515,0,0,1,426.84,327.568Z" transform="translate(-331.713 -253.141)" fill="#2f2e41"/><path d="M344.511,168.456c2.436-2.1,5.781-.221,8.575-.549a6.621,6.621,0,0,0,5.322-5.258c.629-2.972-.913-5.949-3.187-7.8a11.8,11.8,0,0,0-8.921-2.236,22.308,22.308,0,0,0-9.81,4.124,44.243,44.243,0,0,0-7.785,6.6,17.022,17.022,0,0,0-4.422,8.159,11.193,11.193,0,0,0,1.546,8.335,8.789,8.789,0,0,0,3.44,2.834c1.43.7,2.955,1.2,4.34,2,2.094,1.2,4.13,3.689,3.474,6.278a3.555,3.555,0,0,1-.808,1.521c-.469.52-1.314-.167-.844-.689a3,3,0,0,0,.353-3.232,5.908,5.908,0,0,0-2.626-2.888c-1.45-.829-3.05-1.341-4.536-2.1a9.812,9.812,0,0,1-3.6-2.982,12.135,12.135,0,0,1-1.907-8.664,17.162,17.162,0,0,1,4.165-8.6,42.876,42.876,0,0,1,7.862-6.957,25.311,25.311,0,0,1,10.112-4.684,13.56,13.56,0,0,1,9.528,1.533,10.015,10.015,0,0,1,4.845,7.606,8.073,8.073,0,0,1-3.768,7.241,6.935,6.935,0,0,1-4.143.96,31.639,31.639,0,0,0-4.653-.441,3.246,3.246,0,0,0-1.913.773c-.532.458-1.167-.429-.639-.883Z" transform="translate(-289.102 -151.412)" fill="#2f2e41"/><path d="M498.161,747.071H230.095a.432.432,0,1,1,0-.865H498.161a.432.432,0,1,1,0,.865Z" transform="translate(-229.662 -530.243)" fill="#3f3d56"/></svg>