<svg xmlns="http://www.w3.org/2000/svg" width="30" height="29.453" viewBox="0 0 30 29.453"><path d="M29.441,3.932H19.391v1.86h2.962V8.735H19.391v.938h2.962v2.946H19.391v.964h2.962v2.786H19.391v1.116h2.962v2.793H19.391v1.116h2.962V24.2H19.391v2.049h10.05c.159-.047.291-.235.4-.56A2.741,2.741,0,0,0,30,24.9V4.272c0-.16-.055-.256-.161-.29A1.375,1.375,0,0,0,29.441,3.932ZM28.138,24.2H23.316V21.394h4.821V24.2Zm0-3.923H23.316V17.484h4.821Zm0-3.91H23.316V13.594h4.821v2.774Zm0-3.75H23.316V9.675h4.821v2.944h0Zm0-3.9H23.316V5.794h4.821V8.719ZM0,3.469V26.72l17.7,3.061V.329L0,3.479ZM10.491,21.057q-.1-.274-.948-2.329c-.561-1.37-.9-2.167-1-2.395H8.514l-1.9,4.519-2.538-.171,3.01-5.625L4.331,9.431l2.588-.136,1.71,4.4h.034l1.931-4.6,2.674-.169-3.184,6.088,3.281,6.21-2.874-.169Z" transform="translate(0 -0.329)" fill="#07af75"/></svg>