<svg xmlns="http://www.w3.org/2000/svg" width="431.94" height="107.276" viewBox="0 0 431.94 107.276"><g transform="translate(0)"><path d="M5.4-31.59A36.12,36.12,0,0,1,9.18-48.375,28.43,28.43,0,0,1,19.71-59.85a28.506,28.506,0,0,1,15.21-4.14q11.07,0,18.315,5.13A29.2,29.2,0,0,1,63.81-44.64h-1.8A26.162,26.162,0,0,0,52.2-57.51q-6.93-4.86-17.28-4.86a27.011,27.011,0,0,0-14.04,3.735,26.244,26.244,0,0,0-9.945,10.71A34.794,34.794,0,0,0,7.29-31.59a34.318,34.318,0,0,0,3.645,16.2,26.211,26.211,0,0,0,9.99,10.665,27.081,27.081,0,0,0,14,3.735Q45.27-.99,52.2-5.8A25.918,25.918,0,0,0,62.01-18.63h1.8A28.94,28.94,0,0,1,53.235-4.455Q45.99.63,34.92.63A28.743,28.743,0,0,1,19.71-3.465,28.117,28.117,0,0,1,9.18-14.9,35.919,35.919,0,0,1,5.4-31.59ZM98.37.63A24.493,24.493,0,0,1,86.22-2.385a21.632,21.632,0,0,1-8.505-8.64A27.05,27.05,0,0,1,74.61-24.3a27.05,27.05,0,0,1,3.1-13.275,21.632,21.632,0,0,1,8.505-8.64A24.493,24.493,0,0,1,98.37-49.23a24.493,24.493,0,0,1,12.15,3.015,21.336,21.336,0,0,1,8.46,8.64A27.373,27.373,0,0,1,122.04-24.3a27.373,27.373,0,0,1-3.06,13.275,21.336,21.336,0,0,1-8.46,8.64A24.493,24.493,0,0,1,98.37.63Zm0-1.62a23.123,23.123,0,0,0,10.8-2.565,19.76,19.76,0,0,0,8.01-7.785,25.266,25.266,0,0,0,3.06-12.96,25.266,25.266,0,0,0-3.06-12.96,19.76,19.76,0,0,0-8.01-7.785,23.123,23.123,0,0,0-10.8-2.565,23.393,23.393,0,0,0-10.845,2.565,19.61,19.61,0,0,0-8.055,7.83A25.322,25.322,0,0,0,76.41-24.3a25.322,25.322,0,0,0,3.06,12.915,19.61,19.61,0,0,0,8.055,7.83A23.393,23.393,0,0,0,98.37-.99Zm57.6-48.69q8.55,0,14.04,5.31t5.49,16.02V0h-1.71V-28.53q0-9.54-4.77-14.535T155.97-48.06q-8.64,0-13.86,5.625T136.89-25.83V0h-1.8V-48.6h1.8v12.78a17.131,17.131,0,0,1,6.84-10.305A20.951,20.951,0,0,1,155.97-49.68Zm38.25,2.88v34.02a17.994,17.994,0,0,0,.99,6.75,5.946,5.946,0,0,0,3.15,3.285,15.45,15.45,0,0,0,6.03.945h5.13V0h-5.31q-6.3,0-9.045-2.88t-2.745-9.9V-46.8H184.5v-1.8h7.92V-61.02h1.8V-48.6h15.3v1.8Zm21.9,18.3v-2.4l59.55-74.7h3v74.4h18.3v2.7h-18.3V0h-3V-28.5Zm59.55-72.3-55.8,69.6h55.8ZM415.02-.99a22.466,22.466,0,0,0,13.77-4.14,16.929,16.929,0,0,0,6.75-11.34h1.8a19.339,19.339,0,0,1-7.155,12.375Q424.29.63,415.02.63a24.279,24.279,0,0,1-12.06-2.97,20.849,20.849,0,0,1-8.325-8.64A27.974,27.974,0,0,1,391.62-24.3a27.974,27.974,0,0,1,3.015-13.32,20.849,20.849,0,0,1,8.325-8.64,24.279,24.279,0,0,1,12.06-2.97,23.249,23.249,0,0,1,12.15,3.015,20.127,20.127,0,0,1,7.6,7.785,20.981,20.981,0,0,1,2.565,10.08q0,3.24-.09,4.86H393.42a24.591,24.591,0,0,0,3.1,12.51A19.316,19.316,0,0,0,404.4-3.465,23.061,23.061,0,0,0,415.02-.99Zm0-46.62a23.061,23.061,0,0,0-10.62,2.475,19.316,19.316,0,0,0-7.875,7.515,24.591,24.591,0,0,0-3.1,12.51h42.3q.45-7.47-2.385-12.51a18.136,18.136,0,0,0-7.74-7.515A23.144,23.144,0,0,0,415.02-47.61Z" transform="translate(-5.4 105.6)" fill="#07af75"/><g transform="translate(306.658 32.6)"><path d="M0,35.923V4.941C0,2.212,3.187,0,7.12,0s7.119,2.212,7.119,4.941V35.923Z" transform="translate(1.854 38.754)" fill="#07af75"/><path d="M0,43.134V5.933C0,2.656,3.187,0,7.12,0s7.119,2.656,7.119,5.933v37.2Z" transform="translate(19.099 31.543)" fill="#07af75"/><path d="M0,49.811V6.851A6.989,6.989,0,0,1,7.12,0a6.989,6.989,0,0,1,7.119,6.851v42.96Z" transform="translate(36.344 24.865)" fill="#07af75"/><path d="M0,57.289V7.88C0,3.528,3.187,0,7.12,0s7.119,3.528,7.119,7.88V57.289Z" transform="translate(53.589 17.387)" fill="#07af75"/><path d="M0,23.456c3.39-.271,39.549-1.995,54.473-16.02.109.2-3.771-2.972-3.771-2.972L66.154,0,63.446,10.905,57.91,9.024S49.038,24.15.385,26.913C.265,27.076.055,23.527,0,23.456Z" transform="translate(0 8.062) rotate(-7)" fill="#07af75"/></g></g></svg>