<svg xmlns="http://www.w3.org/2000/svg" width="215.978" height="53.117" viewBox="0 0 215.978 53.117"><path d="M5.4-68.594a18.061,18.061,0,0,1,1.89-8.393,14.216,14.216,0,0,1,5.265-5.738,14.253,14.253,0,0,1,7.605-2.07,15.466,15.466,0,0,1,9.158,2.565,14.6,14.6,0,0,1,5.288,7.11h-.9A13.082,13.082,0,0,0,28.8-81.554a14.683,14.683,0,0,0-8.64-2.43,13.506,13.506,0,0,0-7.02,1.868,13.122,13.122,0,0,0-4.973,5.355,17.4,17.4,0,0,0-1.823,8.168,17.16,17.16,0,0,0,1.823,8.1,13.106,13.106,0,0,0,5,5.333,13.541,13.541,0,0,0,7,1.868A14.783,14.783,0,0,0,28.8-55.7a12.959,12.959,0,0,0,4.905-6.413h.9a14.47,14.47,0,0,1-5.288,7.088,15.566,15.566,0,0,1-9.158,2.543,14.372,14.372,0,0,1-7.605-2.048A14.059,14.059,0,0,1,7.29-60.246,17.96,17.96,0,0,1,5.4-68.594ZM51.887-52.483a12.247,12.247,0,0,1-6.075-1.508,10.816,10.816,0,0,1-4.253-4.32,13.525,13.525,0,0,1-1.553-6.638,13.525,13.525,0,0,1,1.553-6.638,10.816,10.816,0,0,1,4.253-4.32,12.247,12.247,0,0,1,6.075-1.508,12.247,12.247,0,0,1,6.075,1.508,10.669,10.669,0,0,1,4.23,4.32,13.687,13.687,0,0,1,1.53,6.638,13.687,13.687,0,0,1-1.53,6.638,10.669,10.669,0,0,1-4.23,4.32A12.247,12.247,0,0,1,51.887-52.483Zm0-.81a11.562,11.562,0,0,0,5.4-1.283,9.88,9.88,0,0,0,4.005-3.893,12.633,12.633,0,0,0,1.53-6.48,12.633,12.633,0,0,0-1.53-6.48,9.88,9.88,0,0,0-4.005-3.893,11.562,11.562,0,0,0-5.4-1.283,11.7,11.7,0,0,0-5.423,1.283,9.806,9.806,0,0,0-4.028,3.915,12.661,12.661,0,0,0-1.53,6.458,12.661,12.661,0,0,0,1.53,6.458,9.806,9.806,0,0,0,4.028,3.915A11.7,11.7,0,0,0,51.887-53.293Zm28.8-24.346a9.681,9.681,0,0,1,7.02,2.655q2.745,2.655,2.745,8.01V-52.8H89.6V-67.064q0-4.77-2.385-7.268a8.6,8.6,0,0,0-6.525-2.5,9,9,0,0,0-6.93,2.813q-2.61,2.813-2.61,8.3V-52.8h-.9V-77.1h.9v6.39a8.566,8.566,0,0,1,3.42-5.153A10.476,10.476,0,0,1,80.688-77.639ZM99.813-76.2v17.011a9,9,0,0,0,.5,3.375,2.973,2.973,0,0,0,1.575,1.643,7.725,7.725,0,0,0,3.015.473h2.565v.9h-2.655q-3.15,0-4.523-1.44t-1.373-4.95V-76.2h-3.96v-.9h3.96v-6.21h.9v6.21h7.65v.9Zm10.95,9.15v-1.2L140.54-105.6h1.5v37.2h9.15v1.35h-9.15V-52.8h-1.5V-67.049ZM140.54-103.2l-27.9,34.8h27.9Zm69.678,49.907a11.234,11.234,0,0,0,6.885-2.07,8.465,8.465,0,0,0,3.375-5.67h.9a9.67,9.67,0,0,1-3.578,6.188,11.747,11.747,0,0,1-7.583,2.363,12.14,12.14,0,0,1-6.03-1.485,10.425,10.425,0,0,1-4.163-4.32,13.987,13.987,0,0,1-1.508-6.66,13.987,13.987,0,0,1,1.508-6.66,10.425,10.425,0,0,1,4.163-4.32,12.14,12.14,0,0,1,6.03-1.485,11.625,11.625,0,0,1,6.075,1.508,10.064,10.064,0,0,1,3.8,3.893,10.491,10.491,0,0,1,1.283,5.04q0,1.62-.045,2.43H199.417a12.3,12.3,0,0,0,1.553,6.255,9.658,9.658,0,0,0,3.938,3.758A11.531,11.531,0,0,0,210.218-53.293Zm0-23.311a11.531,11.531,0,0,0-5.31,1.238,9.658,9.658,0,0,0-3.938,3.758,12.3,12.3,0,0,0-1.553,6.255h21.151a11.192,11.192,0,0,0-1.193-6.255,9.068,9.068,0,0,0-3.87-3.758A11.572,11.572,0,0,0,210.218-76.6Z" transform="translate(-5.4 105.6)" fill="#08f5a3"/><g transform="translate(151.51 12.441)"><path d="M0,19.567V2.691C0,1.2,1.616,0,3.61,0s3.61,1.2,3.61,2.691V19.567Z" transform="translate(1.083 21.109)" fill="#08f5a3"/><path d="M0,23.5V3.232A3.436,3.436,0,0,1,3.61,0a3.436,3.436,0,0,1,3.61,3.232V23.5Z" transform="translate(9.826 17.181)" fill="#08f5a3"/><path d="M0,27.132V3.732A3.672,3.672,0,0,1,3.61,0a3.672,3.672,0,0,1,3.61,3.732v23.4Z" transform="translate(18.569 13.544)" fill="#08f5a3"/><path d="M0,31.206V4.292C0,1.922,1.616,0,3.61,0s3.61,1.922,3.61,4.292V31.206Z" transform="translate(27.313 9.471)" fill="#08f5a3"/><path d="M-.142,12.652c1.722-.163,20.083-1.266,27.721-8.965.054.111-1.9-1.6-1.9-1.6l7.863-2.5L32.118,5.533l-2.8-1s-4.572,8.271-29.279,10C-.024,14.62-.114,12.691-.142,12.652Z" transform="translate(0.191 4.498) rotate(-7)" fill="#08f5a3"/></g></svg>